<svg xmlns="http://www.w3.org/2000/svg" viewBox="0 0 206.25 77.25">
    <path fill="#FE7D2D" d="M29.017 72.158V22.625H9.376V5.092h61.892v17.533H51.627v49.533h-22.61Zm65.034 1.533c-5.237 0-9.964-.847-14.18-2.539-4.215-1.693-7.728-4.168-10.538-7.425L81.5 49.355c1.789 2.172 3.545 3.817 5.27 4.935 1.724 1.117 3.513 1.676 5.365 1.676 4.854 0 7.281-2.778 7.281-8.335V22.146H76.614V5.092h45.125V46.29c0 9.197-2.363 16.063-7.089 20.598-4.727 4.535-11.593 6.803-20.599 6.803Zm72.739 0c-5.365 0-10.331-.847-14.898-2.539-4.567-1.693-8.527-4.104-11.88-7.234-3.353-3.13-5.956-6.834-7.808-11.113-1.852-4.28-2.779-9.006-2.779-14.18 0-5.174.927-9.9 2.779-14.179 1.852-4.28 4.455-7.984 7.808-11.114 3.353-3.13 7.313-5.541 11.88-7.234 4.567-1.692 9.533-2.538 14.898-2.538 6.579 0 12.407 1.149 17.485 3.449 5.078 2.299 9.278 5.62 12.599 9.964l-14.275 12.742c-1.98-2.491-4.168-4.423-6.563-5.796-2.395-1.374-5.094-2.06-8.096-2.06-2.363 0-4.503.383-6.419 1.149a13.56 13.56 0 0 0-4.934 3.354c-1.373 1.469-2.443 3.241-3.21 5.317-.766 2.076-1.149 4.391-1.149 6.946 0 2.555.383 4.87 1.149 6.946.767 2.076 1.837 3.848 3.21 5.317a13.56 13.56 0 0 0 4.934 3.354c1.916.766 4.056 1.149 6.419 1.149 3.002 0 5.701-.686 8.096-2.06 2.395-1.373 4.583-3.305 6.563-5.796l14.275 12.743c-3.321 4.279-7.521 7.584-12.599 9.916-5.078 2.331-10.906 3.497-17.485 3.497Z"/>
  </svg>