<svg xmlns="http://www.w3.org/2000/svg" xmlns:xlink="http://www.w3.org/1999/xlink" xml:space="preserve" width="11in" height="816" color-interpolation-filters="sRGB" style="fill:none;fill-rule:evenodd;font-size:12px;overflow:visible;stroke-linecap:square;stroke-miterlimit:3" viewBox="0 0 792 612"><style>.st1,.st2,.st3{fill:#50e6ff;stroke:none;stroke-linecap:butt;stroke-width:.75}.st2,.st3{fill:#1490df}.st3{fill:url(#grad0-15)}.st4{fill:#000;font-family:Calibri;font-size:.75em}.st5{font-size:1em}.st6,.st7,.st8{fill:url(#grad0-56);stroke:none;stroke-linecap:butt;stroke-width:.75}.st7,.st8{fill:#0078d4}.st8{fill:#f2f2f2}.st10,.st9{stroke:#4672c4}.st9{marker-end:url(#mrkr4-79);stroke-linecap:round;stroke-linejoin:round;stroke-width:1}.st10{fill:#4672c4;fill-opacity:1;stroke-opacity:1;stroke-width:.28409090909091}.st12{fill:#fff;stroke:none;stroke-linecap:butt;stroke-width:7.2}.st13{fill:#3c63ac;font-family:Calibri;font-size:.666664em}.st14,.st15,.st16{fill:#32bedd;stroke:none;stroke-linecap:butt;stroke-width:.75}.st15,.st16{fill:#198ab3}.st16{fill:url(#grad0-107)}.st17{fill:#999}.st17,.st18,.st19{stroke:none;stroke-linecap:butt;stroke-width:.75}.st18{fill:#999;fill-opacity:.5}.st19{fill:#949494}.st20{fill:url(#grad1-209)}.st20,.st21{stroke:none;stroke-linecap:butt;stroke-width:.75}.st23{fill:#3955a3;fill-opacity:1;stroke:#3955a3;stroke-opacity:1;stroke-width:.28409090909091}</style><defs id="Patterns_And_Gradients"><linearGradient id="grad0-15" x1="0" x2="1" y1="0" y2="0" gradientTransform="rotate(-90 .5 .5)"><stop offset="0" stop-color="#fea11b"/><stop offset=".285" stop-color="#fea51a"/><stop offset=".545" stop-color="#feb018"/><stop offset=".8" stop-color="#ffc314"/><stop offset="1" stop-color="#ffd70f"/></linearGradient><linearGradient id="grad0-56" x1="0" x2="1" y1="0" y2="0" gradientTransform="rotate(-90 .5 .5)"><stop offset="0" stop-color="#32bedd"/><stop offset=".175" stop-color="#32caea"/><stop offset=".41" stop-color="#32d2f2"/><stop offset=".775" stop-color="#32d4f5"/></linearGradient><linearGradient id="grad0-107" x1="0" x2="1" y1="0" y2="0" gradientTransform="rotate(90 .5 .5)"><stop offset="0" stop-color="#005ba1"/><stop offset=".26" stop-color="#00589d"/><stop offset=".525" stop-color="#004f90"/><stop offset=".795" stop-color="#003f7c"/><stop offset="1" stop-color="#003067"/></linearGradient><radialGradient id="grad1-209" cx="1" cy="1" r="1.4"><stop offset=".185" stop-color="#5ea0ef"/><stop offset="1" stop-color="#0078d4"/></radialGradient></defs><defs id="Markers"><marker id="mrkr4-79" class="st10" markerUnits="strokeWidth" orient="auto" overflow="visible" refX="-7.04"><use xlink:href="#lend4" transform="scale(-3.52)"/></marker><marker id="mrkr13-91" class="st10" markerUnits="strokeWidth" orient="auto" overflow="visible" refX="10.2"><use xlink:href="#lend13" transform="scale(3.52)"/></marker><marker id="mrkr13-93" class="st10" markerUnits="strokeWidth" orient="auto" overflow="visible" refX="-10.56"><use xlink:href="#lend13" transform="scale(-3.52)"/></marker><marker id="mrkr1-223" class="st23" markerUnits="strokeWidth" orient="auto" overflow="visible"><use xlink:href="#lend1" transform="scale(3.52)"/></marker><marker id="mrkr1-225" class="st23" markerUnits="strokeWidth" orient="auto" overflow="visible"><use xlink:href="#lend1" transform="scale(-3.52)"/></marker><path id="lend4" d="M2 1 0 0l2-1z" style="stroke:none"/><path id="lend13" d="M3 1 0 0l3-1z" style="stroke:none"/><path id="lend1" d="M1-1 0 0l1 1" style="stroke-linecap:round;stroke-linejoin:round;fill:none"/></defs><g id="group1-1" transform="translate(27.936 -300.769)"><desc>Authenticate</desc><g id="group2-2" transform="translate(0 -10.326)"><g id="shape3-3" transform="rotate(134.919 5.066 603.22)"><path d="M.87 589.62h2.67a.86.86 0 0 1 .86.86v19.8A1.717 1.717 0 0 1 2.69 612H0v-21.52a.86.86 0 0 1 .86-.86z" class="st1"/></g><g id="shape4-5" transform="rotate(44.919 18.362 603.402)"><path d="M.86 589.94h2.68a.86.86 0 0 1 .86.86V612H1.72A1.717 1.717 0 0 1 0 610.28v-19.49a.86.86 0 0 1 .86-.854Z" class="st2"/></g></g><g id="group5-7" transform="translate(39.697 -10.316)"><g id="shape6-8" transform="rotate(45.081 3.143 610.183)"><path d="M0 589.62h2.68a1.717 1.717 0 0 1 1.72 1.72v19.8a.86.86 0 0 1-.86.86H.87a.86.86 0 0 1-.86-.86v-21.52z" class="st1"/></g><g id="shape7-10" transform="rotate(135.081 7.948 597.066)"><path d="M1.72 589.94H4.4v21.2a.86.86 0 0 1-.86.86H.86a.86.86 0 0 1-.86-.86v-19.49a1.717 1.717 0 0 1 1.72-1.72z" class="st2"/></g></g><g id="shape8-12" transform="translate(14.855)"><path d="M12.2 588.66H.64a.622.61 0 0 1-.644-.572.535.524 0 0 1 .058-.237L13.92 560.95a.664.65 0 0 1 .6-.335l13.67-.005a.622.61 0 0 1 .644.572.531.521 0 0 1-.113.316L12.45 582.55h15.87a.622.61 0 0 1 .644.572.567.556 0 0 1-.167.385L2.42 610.42c-.25.15-2.01 1.58-1.15-.6z" class="st3"/></g><text id="shape1-16" x="5.01" y="621.18" class="st4">Authenticate</text></g><g id="group9-18" transform="translate(666.619 -300.705)"><desc>Process Blend Song</desc><g id="group10-19" transform="translate(0 -10.326)"><g id="shape11-20" transform="rotate(134.919 5.066 603.22)"><path d="M.87 589.62h2.67a.86.86 0 0 1 .86.86v19.8A1.717 1.717 0 0 1 2.69 612H0v-21.52a.86.86 0 0 1 .86-.86z" class="st1"/></g><g id="shape12-22" transform="rotate(44.919 18.362 603.402)"><path d="M.86 589.94h2.68a.86.86 0 0 1 .86.86V612H1.72A1.717 1.717 0 0 1 0 610.28v-19.49a.86.86 0 0 1 .86-.854Z" class="st2"/></g></g><g id="group13-24" transform="translate(39.697 -10.316)"><g id="shape14-25" transform="rotate(45.081 3.143 610.183)"><path d="M0 589.62h2.68a1.717 1.717 0 0 1 1.72 1.72v19.8a.86.86 0 0 1-.86.86H.87a.86.86 0 0 1-.86-.86v-21.52z" class="st1"/></g><g id="shape15-27" transform="rotate(135.081 7.948 597.066)"><path d="M1.72 589.94H4.4v21.2a.86.86 0 0 1-.86.86H.86a.86.86 0 0 1-.86-.86v-19.49a1.717 1.717 0 0 1 1.72-1.72z" class="st2"/></g></g><g id="shape16-29" transform="translate(14.855)"><path d="M12.2 588.66H.64a.622.61 0 0 1-.644-.572.535.524 0 0 1 .058-.237L13.92 560.95a.664.65 0 0 1 .6-.335l13.67-.005a.622.61 0 0 1 .644.572.531.521 0 0 1-.113.316L12.45 582.55h15.87a.622.61 0 0 1 .644.572.567.556 0 0 1-.167.385L2.42 610.42c-.25.15-2.01 1.58-1.15-.6z" class="st3"/></g><text id="shape9-32" x="-6.53" y="621.18" class="st4">Process Blend Song</text></g><g id="group17-34" transform="translate(356.767 -300.705)"><desc>Process Blend Playlist</desc><g id="group18-35" transform="translate(0 -10.326)"><g id="shape19-36" transform="rotate(134.919 5.066 603.22)"><path d="M.87 589.62h2.67a.86.86 0 0 1 .86.86v19.8A1.717 1.717 0 0 1 2.69 612H0v-21.52a.86.86 0 0 1 .86-.86z" class="st1"/></g><g id="shape20-38" transform="rotate(44.919 18.362 603.402)"><path d="M.86 589.94h2.68a.86.86 0 0 1 .86.86V612H1.72A1.717 1.717 0 0 1 0 610.28v-19.49a.86.86 0 0 1 .86-.854Z" class="st2"/></g></g><g id="group21-40" transform="translate(39.697 -10.316)"><g id="shape22-41" transform="rotate(45.081 3.143 610.183)"><path d="M0 589.62h2.68a1.717 1.717 0 0 1 1.72 1.72v19.8a.86.86 0 0 1-.86.86H.87a.86.86 0 0 1-.86-.86v-21.52z" class="st1"/></g><g id="shape23-43" transform="rotate(135.081 7.948 597.066)"><path d="M1.72 589.94H4.4v21.2a.86.86 0 0 1-.86.86H.86a.86.86 0 0 1-.86-.86v-19.49a1.717 1.717 0 0 1 1.72-1.72z" class="st2"/></g></g><g id="shape24-45" transform="translate(14.855)"><path d="M12.2 588.66H.64a.622.61 0 0 1-.644-.572.535.524 0 0 1 .058-.237L13.92 560.95a.664.65 0 0 1 .6-.335l13.67-.005a.622.61 0 0 1 .644.572.531.521 0 0 1-.113.316L12.45 582.55h15.87a.622.61 0 0 1 .644.572.567.556 0 0 1-.167.385L2.42 610.42c-.25.15-2.01 1.58-1.15-.6z" class="st3"/></g><text id="shape17-48" x="3.41" y="622.26" class="st4">Process Blend <tspan x="15.92" class="st5" dy="1.2em">Playlist</tspan></text></g><g id="group25-51" transform="translate(27.936 -446.767)"><desc>Website</desc><g id="group26-52"><g id="shape27-53"><path d="M0 577.96h57.6v32.12a1.925 1.925 0 0 1-1.92 1.92H1.92A1.925 1.925 0 0 1 0 610.08z" class="st6"/></g><g id="shape28-57" transform="translate(0 -34.038)"><path d="M1.93 599.73h53.74a1.925 1.925 0 0 1 1.92 1.92V612H0v-10.35a1.925 1.925 0 0 1 1.93-1.92" class="st7"/></g><g id="shape29-59" transform="translate(7.749 -37.7)"><path d="M0 611.04a.96.96-180 0 0 .962.962L41.14 612a.96.96-180 0 0 .962-.962l-.002-3.018a.96.96-180 0 0-.962-.962L.96 607.06a.96.96-180 0 0-.962.962z" class="st8"/></g></g><text id="shape25-61" x="13.65" y="621.18" class="st4">Website</text></g><g id="group30-63" transform="translate(94.003 -536.76)"><desc>Spotify OAuth</desc><g id="group31-64"><g id="shape32-65"><path d="M0 577.96h57.6v32.12a1.925 1.925 0 0 1-1.92 1.92H1.92A1.925 1.925 0 0 1 0 610.08z" class="st6"/></g><g id="shape33-68" transform="translate(0 -34.038)"><path d="M1.93 599.73h53.74a1.925 1.925 0 0 1 1.92 1.92V612H0v-10.35a1.925 1.925 0 0 1 1.93-1.92" class="st7"/></g><g id="shape34-70" transform="translate(7.749 -37.7)"><path d="M0 611.04a.96.96-180 0 0 .962.962L41.14 612a.96.96-180 0 0 .962-.962l-.002-3.018a.96.96-180 0 0-.962-.962L.96 607.06a.96.96-180 0 0-.962.962z" class="st8"/></g></g><text id="shape30-72" x="3.21" y="621.18" class="st4">Spotify OAuth</text></g><g id="shape35-74" transform="translate(85.536 -469.922)"><path d="M0 612h37.27v-48.99" class="st9"/></g><g id="shape36-80" transform="translate(94.003 -559.915)"><path d="M0 612h-37.27v59.8" class="st9"/></g><g id="shape37-85" transform="translate(47.736 -435.964)"><desc>After Spotify OAuth</desc><path d="M9 622.2v63.05" style="marker-end:url(#mrkr13-93);marker-start:url(#mrkr13-91);stroke:#4672c4;stroke-linecap:round;stroke-linejoin:round;stroke-width:1"/><path d="M-22.912 649.104h63.823v9.6h-63.823z" class="st12"/><text x="-22.91" y="656.3" class="st13">After Spotify OAuth</text></g><g id="group38-96" transform="translate(201.838 -300.774)"><desc>Process Blend Playlist Queue</desc><g id="group39-97"><g id="shape40-98" transform="translate(13.912 -11.422)"><path d="m29.75 592.34-.01-.01v-.04h-.07L14.88 582.2.08 592.29H.02v.04l-.02.01h.02V612h29.72v-19.66z" class="st1"/></g><g id="shape41-100" transform="translate(13.912 -11.425)"><path d="M0 592.35.03 612l14.84-9.83z" class="st14"/></g><g id="shape42-102" transform="translate(28.783 -11.425)"><path d="M14.87 592.35 0 602.17 14.84 612z" class="st15"/></g><g id="shape43-104" transform="translate(13.94 -11.428)"><path d="M14.84 602.17 0 611.98v.02h29.69v-.02z" class="st16"/></g><g id="group44-108" transform="translate(0 -38.138)"><g id="shape45-109"><path d="M1.94 598.83h4.37v12.2a.97.97 0 0 1-.969.969L.97 612a.97.97 0 0 1-.969-.952L0 600.76a1.94 1.94 0 0 1 1.94-1.93" class="st17"/></g><g id="shape46-111"><path d="M1.94 598.83h4.37v12.2a.97.97 0 0 1-.969.969L.97 612a.97.97 0 0 1-.969-.952L0 600.76a1.94 1.94 0 0 1 1.94-1.93" class="st18"/></g></g><g id="group47-113" transform="translate(51.291 -38.121)"><g id="shape48-114"><path d="M0 598.82h4.37a1.94 1.94 0 0 1 1.94 1.93v10.28a.97.97 0 0 1-.969.969L.97 612a.97.97 0 0 1-.969-.969z" class="st17"/></g><g id="shape49-116"><path d="M0 598.82h4.37a1.94 1.94 0 0 1 1.94 1.93v10.28a.97.97 0 0 1-.969.969L.97 612a.97.97 0 0 1-.969-.969z" class="st18"/></g></g><g id="shape50-118" transform="rotate(90 25.652 586.348)"><path d="M1.92 554.4h4.23V612H1.92A1.92 1.92 0 0 1 0 610.08v-53.77a1.92 1.92 0 0 1 1.92-1.91" class="st19"/></g><g id="group51-120" transform="translate(0 -.024)"><g id="shape52-121"><path d="M.97 598.83h4.37a.97.97 0 0 1 .969.969L6.31 612H1.94A1.94 1.94 0 0 1 0 610.09V599.8a.97.97 0 0 1 .969-.969Z" class="st17"/></g><g id="shape53-123"><path d="M.97 598.83h4.37a.97.97 0 0 1 .969.969L6.31 612H1.94A1.94 1.94 0 0 1 0 610.09V599.8a.97.97 0 0 1 .969-.969Z" class="st18"/></g></g><g id="group54-125" transform="translate(51.29)"><g id="shape55-126"><path d="M.97 598.81h4.37a.97.97 0 0 1 .969.969l.001 10.281A1.94 1.94 0 0 1 4.37 612H0v-12.2a.97.97 0 0 1 .969-.993Z" class="st17"/></g><g id="shape56-128"><path d="M.97 598.81h4.37a.97.97 0 0 1 .969.969l.001 10.281A1.94 1.94 0 0 1 4.37 612H0v-12.2a.97.97 0 0 1 .969-.993Z" class="st18"/></g></g><g id="shape57-130" transform="rotate(-90 28.797 583.197)"><path d="M1.92 554.4h4.23V612H1.92A1.92 1.92 0 0 1 0 610.08v-53.76a1.92 1.92 0 0 1 1.92-1.92" class="st19"/></g></g><text id="shape38-132" x="3.41" y="622.26" class="st4">Process Blend <tspan x="2.67" class="st5" dy="1.2em">Playlist Queue</tspan></text></g><g id="group58-135" transform="translate(511.697 -300.846)"><desc>Service Bus Integration</desc><g id="group59-136"><g id="shape60-137" transform="translate(13.912 -11.422)"><path d="m29.75 592.34-.01-.01v-.04h-.07L14.88 582.2.08 592.29H.02v.04l-.02.01h.02V612h29.72v-19.66z" class="st1"/></g><g id="shape61-139" transform="translate(13.912 -11.425)"><path d="M0 592.35.03 612l14.84-9.83z" class="st14"/></g><g id="shape62-141" transform="translate(28.783 -11.425)"><path d="M14.87 592.35 0 602.17 14.84 612z" class="st15"/></g><g id="shape63-143" transform="translate(13.94 -11.428)"><path d="M14.84 602.17 0 611.98v.02h29.69v-.02z" class="st16"/></g><g id="group64-146" transform="translate(0 -38.138)"><g id="shape65-147"><path d="M1.94 598.83h4.37v12.2a.97.97 0 0 1-.969.969L.97 612a.97.97 0 0 1-.969-.952L0 600.76a1.94 1.94 0 0 1 1.94-1.93" class="st17"/></g><g id="shape66-149"><path d="M1.94 598.83h4.37v12.2a.97.97 0 0 1-.969.969L.97 612a.97.97 0 0 1-.969-.952L0 600.76a1.94 1.94 0 0 1 1.94-1.93" class="st18"/></g></g><g id="group67-151" transform="translate(51.291 -38.121)"><g id="shape68-152"><path d="M0 598.82h4.37a1.94 1.94 0 0 1 1.94 1.93v10.28a.97.97 0 0 1-.969.969L.97 612a.97.97 0 0 1-.969-.969z" class="st17"/></g><g id="shape69-154"><path d="M0 598.82h4.37a1.94 1.94 0 0 1 1.94 1.93v10.28a.97.97 0 0 1-.969.969L.97 612a.97.97 0 0 1-.969-.969z" class="st18"/></g></g><g id="shape70-156" transform="rotate(90 25.652 586.348)"><path d="M1.92 554.4h4.23V612H1.92A1.92 1.92 0 0 1 0 610.08v-53.77a1.92 1.92 0 0 1 1.92-1.91" class="st19"/></g><g id="group71-158" transform="translate(0 -.024)"><g id="shape72-159"><path d="M.97 598.83h4.37a.97.97 0 0 1 .969.969L6.31 612H1.94A1.94 1.94 0 0 1 0 610.09V599.8a.97.97 0 0 1 .969-.969Z" class="st17"/></g><g id="shape73-161"><path d="M.97 598.83h4.37a.97.97 0 0 1 .969.969L6.31 612H1.94A1.94 1.94 0 0 1 0 610.09V599.8a.97.97 0 0 1 .969-.969Z" class="st18"/></g></g><g id="group74-163" transform="translate(51.29)"><g id="shape75-164"><path d="M.97 598.81h4.37a.97.97 0 0 1 .969.969l.001 10.281A1.94 1.94 0 0 1 4.37 612H0v-12.2a.97.97 0 0 1 .969-.993Z" class="st17"/></g><g id="shape76-166"><path d="M.97 598.81h4.37a.97.97 0 0 1 .969.969l.001 10.281A1.94 1.94 0 0 1 4.37 612H0v-12.2a.97.97 0 0 1 .969-.993Z" class="st18"/></g></g><g id="shape77-168" transform="rotate(-90 28.797 583.197)"><path d="M1.92 554.4h4.23V612H1.92A1.92 1.92 0 0 1 0 610.08v-53.76a1.92 1.92 0 0 1 1.92-1.92" class="st19"/></g></g><text id="shape58-170" x="8.13" y="622.26" class="st4">Service Bus <tspan x="8.44" class="st5" dy="1.2em">Integration</tspan></text></g><g id="shape78-173" transform="translate(85.536 -335.444)"><desc>Enqueue Message</desc><path d="M0 620.98h13.5v.04h95.76" class="st9"/><path d="M43.793 611.418h28.679v19.2H43.793z" class="st12"/><text x="43.79" y="618.62" class="st13">Enqueue<tspan x="43.8" class="st5" dy="1.2em">Message</tspan></text></g><g id="shape79-181" transform="translate(259.438 -335.412)"><path d="M0 620.99h13.5v.02h76.79" class="st9"/></g><g id="shape80-186" transform="translate(414.367 -317.448)"><desc>Enqueue Message for each Song</desc><path d="M0 603.05h13.5v-.1h76.79" class="st9"/><path d="M28.658 588.55h39.914v28.8H28.658z" class="st12"/><text x="34.27" y="595.75" class="st13">Enqueue<tspan x="28.66" class="st5" dy="1.2em">Message for</tspan><tspan x="32.08" class="st5" dy="1.2em">each Song</tspan></text></g><g id="shape81-195" transform="translate(569.297 -335.448)"><path d="M0 620.95h13.5v.1h76.78" class="st9"/></g><g id="group82-200" transform="translate(27.929 -150.924)"><desc>Users Table</desc><g id="shape83-201" transform="translate(1.345 -39.809)"><path d="M7.71 612a.57.57 0 0 1-.575-.575A6.57 6.57-180 0 0 .57 604.86a.575.575 0 0 1-.575-.571.575.575 0 0 1 .575-.575 6.57 6.57-180 0 0 6.57-6.564.57.57 0 0 1 .575-.575.57.57 0 0 1 .575.575 6.57 6.57-180 0 0 6.56 6.56.57.57 0 0 1 .575.575.57.57 0 0 1-.575.575 6.567 6.567-180 0 0-6.56 6.57.58.58 0 0 1-.575.575Z" class="st1"/></g><g id="shape84-203" transform="translate(44.22)"><path d="M6.17 612a.46.46 0 0 1-.46-.46 5.254 5.254-180 0 0-5.25-5.25.46.46 0 0 1-.46-.457.46.46 0 0 1 .46-.46 5.25 5.25-180 0 0 5.25-5.243.46.46 0 0 1 .46-.46.46.46 0 0 1 .46.46 5.25 5.25-180 0 0 5.25 5.24.46.46 0 0 1 0 .92 5.254 5.254-180 0 0-5.25 5.25.46.46 0 0 1-.46.457Z" class="st1"/></g><g id="group85-205" transform="translate(8.758 -7.717)"><g id="shape86-206" transform="translate(9.55 -2.965)"><path d="M29.98 590.27a20.042 20.042 0 1 1-24.15-14.84 20.04 20.04 0 0 1 24.15 14.84" class="st20"/></g><g id="group87-210"><g id="shape88-211"><path d="M39.53 587.3a20.042 20.042 0 1 1-24.15-14.83 20.04 20.04 0 0 1 24.15 14.83" class="st21"/></g></g></g><g id="shape89-213" transform="translate(0 -8.471)"><path d="M55.55 575.98c-2.05-3.42-6.86-4.75-13.57-3.75a48 48-180 0 0-6.8 1.47 21 21 0 0 1 4.99 2.51c.79-.17 1.58-.38 2.34-.49a24.5 24.5 0 0 1 3.6-.3 7.15 7.15 0 0 1 6.4 2.37c1.25 2.09.19 5.65-2.9 9.8a54.6 54.6 0 0 1-15.51 13.23 54.7 54.7 0 0 1-19.02 7.39c-5.1.76-8.75 0-10.01-2.08-1.25-2.08-.19-5.65 2.9-9.78.38-.52.48-.77.91-1.28a20.4 20.4 0 0 1 .08-5.33 38 38-180 0 0-3.82 4.48C1.1 599.64 0 604.5 2.05 607.92a10.34 10.34-180 0 0 9.47 4.08 27.5 27.5-180 0 0 4.09-.33 58.3 58.3-180 0 0 20.31-7.83 58.2 58.2-180 0 0 16.52-14.15c4.06-5.43 5.16-10.29 3.11-13.71" class="st1"/></g><text id="shape82-215" x="7.58" y="621.18" class="st4">Users Table</text></g><g id="shape90-217" transform="translate(65.732 -289.966)"><desc>Check if user is part of the blend</desc><path d="M-9 612v2.7h0v81.11" style="marker-end:url(#mrkr1-225);marker-start:url(#mrkr1-223);stroke:#3955a3;stroke-linecap:round;stroke-linejoin:round;stroke-width:1"/><path d="M-40.779 644.303h63.55v19.2h-63.55z" class="st12"/><text x="-40.78" y="651.5" class="st13">Check if user is part<tspan x="-28.79" class="st5" dy="1.2em">of the blend</tspan></text></g><g id="group91-229" transform="translate(356.767 -150.924)"><desc>Process Request Table</desc><g id="shape92-230" transform="translate(1.345 -39.809)"><path d="M7.71 612a.57.57 0 0 1-.575-.575A6.57 6.57-180 0 0 .57 604.86a.575.575 0 0 1-.575-.571.575.575 0 0 1 .575-.575 6.57 6.57-180 0 0 6.57-6.564.57.57 0 0 1 .575-.575.57.57 0 0 1 .575.575 6.57 6.57-180 0 0 6.56 6.56.57.57 0 0 1 .575.575.57.57 0 0 1-.575.575 6.567 6.567-180 0 0-6.56 6.57.58.58 0 0 1-.575.575Z" class="st1"/></g><g id="shape93-232" transform="translate(44.22)"><path d="M6.17 612a.46.46 0 0 1-.46-.46 5.254 5.254-180 0 0-5.25-5.25.46.46 0 0 1-.46-.457.46.46 0 0 1 .46-.46 5.25 5.25-180 0 0 5.25-5.243.46.46 0 0 1 .46-.46.46.46 0 0 1 .46.46 5.25 5.25-180 0 0 5.25 5.24.46.46 0 0 1 0 .92 5.254 5.254-180 0 0-5.25 5.25.46.46 0 0 1-.46.457Z" class="st1"/></g><g id="group94-234" transform="translate(8.758 -7.717)"><g id="shape95-235" transform="translate(9.55 -2.965)"><path d="M29.98 590.27a20.042 20.042 0 1 1-24.15-14.84 20.04 20.04 0 0 1 24.15 14.84" class="st20"/></g><g id="group96-238"><g id="shape97-239"><path d="M39.53 587.3a20.042 20.042 0 1 1-24.15-14.83 20.04 20.04 0 0 1 24.15 14.83" class="st21"/></g></g></g><g id="shape98-241" transform="translate(0 -8.471)"><path d="M55.55 575.98c-2.05-3.42-6.86-4.75-13.57-3.75a48 48-180 0 0-6.8 1.47 21 21 0 0 1 4.99 2.51c.79-.17 1.58-.38 2.34-.49a24.5 24.5 0 0 1 3.6-.3 7.15 7.15 0 0 1 6.4 2.37c1.25 2.09.19 5.65-2.9 9.8a54.6 54.6 0 0 1-15.51 13.23 54.7 54.7 0 0 1-19.02 7.39c-5.1.76-8.75 0-10.01-2.08-1.25-2.08-.19-5.65 2.9-9.78.38-.52.48-.77.91-1.28a20.4 20.4 0 0 1 .08-5.33 38 38-180 0 0-3.82 4.48C1.1 599.64 0 604.5 2.05 607.92a10.34 10.34-180 0 0 9.47 4.08 27.5 27.5-180 0 0 4.09-.33 58.3 58.3-180 0 0 20.31-7.83 58.2 58.2-180 0 0 16.52-14.15c4.06-5.43 5.16-10.29 3.11-13.71" class="st1"/></g><text id="shape91-243" x="-1.06" y="622.26" class="st4">Process Request <tspan x="18.82" class="st5" dy="1.2em">Table</tspan></text></g><g id="shape99-246" transform="translate(376.567 -279.101)"><desc>Store process request document</desc><path d="M9 612v65.91" class="st9"/><path d="M-43.913 643.674H61.914v9.6H-43.913z" class="st12"/><text x="-43.91" y="650.87" class="st13">Store process request document</text></g><g id="group100-253" transform="translate(666.619 -150.924)"><desc>Songs Table</desc><g id="shape101-254" transform="translate(1.345 -39.809)"><path d="M7.71 612a.57.57 0 0 1-.575-.575A6.57 6.57-180 0 0 .57 604.86a.575.575 0 0 1-.575-.571.575.575 0 0 1 .575-.575 6.57 6.57-180 0 0 6.57-6.564.57.57 0 0 1 .575-.575.57.57 0 0 1 .575.575 6.57 6.57-180 0 0 6.56 6.56.57.57 0 0 1 .575.575.57.57 0 0 1-.575.575 6.567 6.567-180 0 0-6.56 6.57.58.58 0 0 1-.575.575Z" class="st1"/></g><g id="shape102-256" transform="translate(44.22)"><path d="M6.17 612a.46.46 0 0 1-.46-.46 5.254 5.254-180 0 0-5.25-5.25.46.46 0 0 1-.46-.457.46.46 0 0 1 .46-.46 5.25 5.25-180 0 0 5.25-5.243.46.46 0 0 1 .46-.46.46.46 0 0 1 .46.46 5.25 5.25-180 0 0 5.25 5.24.46.46 0 0 1 0 .92 5.254 5.254-180 0 0-5.25 5.25.46.46 0 0 1-.46.457Z" class="st1"/></g><g id="group103-258" transform="translate(8.758 -7.717)"><g id="shape104-259" transform="translate(9.55 -2.965)"><path d="M29.98 590.27a20.042 20.042 0 1 1-24.15-14.84 20.04 20.04 0 0 1 24.15 14.84" class="st20"/></g><g id="group105-262"><g id="shape106-263"><path d="M39.53 587.3a20.042 20.042 0 1 1-24.15-14.83 20.04 20.04 0 0 1 24.15 14.83" class="st21"/></g></g></g><g id="shape107-265" transform="translate(0 -8.471)"><path d="M55.55 575.98c-2.05-3.42-6.86-4.75-13.57-3.75a48 48-180 0 0-6.8 1.47 21 21 0 0 1 4.99 2.51c.79-.17 1.58-.38 2.34-.49a24.5 24.5 0 0 1 3.6-.3 7.15 7.15 0 0 1 6.4 2.37c1.25 2.09.19 5.65-2.9 9.8a54.6 54.6 0 0 1-15.51 13.23 54.7 54.7 0 0 1-19.02 7.39c-5.1.76-8.75 0-10.01-2.08-1.25-2.08-.19-5.65 2.9-9.78.38-.52.48-.77.91-1.28a20.4 20.4 0 0 1 .08-5.33 38 38-180 0 0-3.82 4.48C1.1 599.64 0 604.5 2.05 607.92a10.34 10.34-180 0 0 9.47 4.08 27.5 27.5-180 0 0 4.09-.33 58.3 58.3-180 0 0 20.31-7.83 58.2 58.2-180 0 0 16.52-14.15c4.06-5.43 5.16-10.29 3.11-13.71" class="st1"/></g><text id="shape100-267" x="7.12" y="621.18" class="st4">Songs Table</text></g><g id="shape108-269" transform="translate(686.419 -289.901)"><desc>Create / Update song document</desc><path d="M9 612v76.71" class="st9"/><path d="M-17.133 644.274h52.265v19.2h-52.265z" class="st12"/><text x="-17.13" y="651.47" class="st13">Create / Update<tspan x="-16.19" class="st5" dy="1.2em">song document</tspan></text></g><g id="shape110-277" transform="translate(612.475 -452.693)"><path d="M0 566.64h165.874V612H0z" style="fill:none;stroke:none;stroke-width:.25"/></g></svg>