<svg xmlns="http://www.w3.org/2000/svg" xmlns:xlink="http://www.w3.org/1999/xlink" xml:space="preserve" width="11in" height="816" color-interpolation-filters="sRGB" style="fill:none;fill-rule:evenodd;font-size:12px;overflow:visible;stroke-linecap:square;stroke-miterlimit:3" viewBox="0 0 792 612"><style>.st1,.st2,.st3{fill:#50e6ff;stroke:none;stroke-linecap:butt;stroke-width:.75}.st2,.st3{fill:#1490df}.st3{fill:url(#grad0-15)}.st4{fill:#000;font-family:Calibri;font-size:.75em}.st5{font-size:1em}.st6,.st7,.st8{fill:#32bedd;stroke:none;stroke-linecap:butt;stroke-width:.75}.st7,.st8{fill:#198ab3}.st8{fill:url(#grad0-114)}.st9{fill:#999}.st10,.st11,.st9{stroke:none;stroke-linecap:butt;stroke-width:.75}.st10{fill:#999;fill-opacity:.5}.st11{fill:#949494}.st12{marker-end:url(#mrkr4-185);stroke:#4672c4;stroke-linecap:round;stroke-linejoin:round;stroke-width:1}.st14{fill:url(#grad1-210)}.st14,.st15,.st17{stroke:none;stroke-linecap:butt;stroke-width:.75}.st17{fill:url(#grad0-238)}.st22{marker-end:url(#mrkr4-329);stroke:#70ad47;stroke-dasharray:19,5,7,5;stroke-linecap:round;stroke-linejoin:round;stroke-width:1}.st25,.st26{fill:#37c2b1;stroke:none;stroke-linecap:butt;stroke-width:.75}.st26{fill:#fff}.st28,.st29{fill:#7697d3;stroke:#cdcdcd;stroke-width:.25}.st29{fill:none;stroke:none}.st30{fill:#000;font-family:Calibri;font-size:1.00001em}.st33{fill:#ff9300;fill-opacity:.75;stroke:none;stroke-linecap:butt;stroke-width:.75}</style><defs id="Patterns_And_Gradients"><linearGradient id="grad0-15" x1="0" x2="1" y1="0" y2="0" gradientTransform="rotate(-90 .5 .5)"><stop offset="0" stop-color="#fea11b"/><stop offset=".285" stop-color="#fea51a"/><stop offset=".545" stop-color="#feb018"/><stop offset=".8" stop-color="#ffc314"/><stop offset="1" stop-color="#ffd70f"/></linearGradient><linearGradient id="grad0-114" x1="0" x2="1" y1="0" y2="0" gradientTransform="rotate(90 .5 .5)"><stop offset="0" stop-color="#005ba1"/><stop offset=".26" stop-color="#00589d"/><stop offset=".525" stop-color="#004f90"/><stop offset=".795" stop-color="#003f7c"/><stop offset="1" stop-color="#003067"/></linearGradient><linearGradient id="grad0-234" x1="0" x2="1" y1="0" y2="0" gradientTransform="rotate(90 .5 .5)"><stop offset=".16" stop-color="#50e6ff"/><stop offset="1" stop-color="#32bedd"/></linearGradient><linearGradient id="grad0-238" x1="0" x2="1" y1="0" y2="0" gradientTransform="rotate(90 .5 .5)"><stop offset=".235" stop-color="#50e6ff"/><stop offset="1" stop-color="#32bedd"/></linearGradient><linearGradient id="grad0-428" x1="0" x2="1" y1="0" y2="0" gradientTransform="rotate(-90 .5 .5)"><stop offset="0" stop-color="#b3b3b3"/><stop offset=".26" stop-color="#c1c1c1"/><stop offset="1" stop-color="#e6e6e6"/></linearGradient><radialGradient id="grad1-210" cx="1" cy="1" r="1.4"><stop offset=".185" stop-color="#5ea0ef"/><stop offset="1" stop-color="#0078d4"/></radialGradient><radialGradient id="grad3-495" cx=".5" cy=".5" r=".73"><stop offset=".18" stop-color="#5ea0ef"/><stop offset=".56" stop-color="#5c9fee"/><stop offset=".69" stop-color="#559ced"/><stop offset=".78" stop-color="#4a97e9"/><stop offset=".86" stop-color="#3990e4"/><stop offset=".93" stop-color="#2387de"/><stop offset=".99" stop-color="#087bd6"/><stop offset="1" stop-color="#0078d4"/></radialGradient><radialGradient id="grad7-502" cx="0" cy="0" r="1.4"><stop offset=".27" stop-color="#ffd70f"/><stop offset=".49" stop-color="#ffcb12"/><stop offset=".88" stop-color="#feac19"/><stop offset="1" stop-color="#fea11b"/></radialGradient></defs><defs id="Markers"><marker id="mrkr4-185" markerUnits="strokeWidth" orient="auto" overflow="visible" refX="-7.04" style="fill:#4672c4;fill-opacity:1;stroke:#4672c4;stroke-opacity:1;stroke-width:.28409090909091"><use xlink:href="#lend4" transform="scale(-3.52)"/></marker><marker id="mrkr4-329" markerUnits="strokeWidth" orient="auto" overflow="visible" refX="-7.04" style="fill:#70ad47;fill-opacity:1;stroke:#70ad47;stroke-opacity:1;stroke-width:.28409090909091"><use xlink:href="#lend4" transform="scale(-3.52)"/></marker><path id="lend4" d="M2 1 0 0l2-1z" style="stroke:none"/></defs><g id="group1-1" transform="translate(107.057 -403.233)"><desc>Enqueue Meter Queries</desc><g id="group2-2" transform="translate(0 -10.326)"><g id="shape3-3" transform="rotate(134.919 5.066 603.22)"><path d="M.87 589.62h2.67a.86.86 0 0 1 .86.86v19.8A1.717 1.717 0 0 1 2.69 612H0v-21.52a.86.86 0 0 1 .86-.86z" class="st1"/></g><g id="shape4-5" transform="rotate(44.919 18.362 603.402)"><path d="M.86 589.94h2.68a.86.86 0 0 1 .86.86V612H1.72A1.717 1.717 0 0 1 0 610.28v-19.49a.86.86 0 0 1 .86-.854Z" class="st2"/></g></g><g id="group5-7" transform="translate(39.697 -10.316)"><g id="shape6-8" transform="rotate(45.081 3.143 610.183)"><path d="M0 589.62h2.68a1.717 1.717 0 0 1 1.72 1.72v19.8a.86.86 0 0 1-.86.86H.87a.86.86 0 0 1-.86-.86v-21.52z" class="st1"/></g><g id="shape7-10" transform="rotate(135.081 7.948 597.066)"><path d="M1.72 589.94H4.4v21.2a.86.86 0 0 1-.86.86H.86a.86.86 0 0 1-.86-.86v-19.49a1.717 1.717 0 0 1 1.72-1.72z" class="st2"/></g></g><g id="shape8-12" transform="translate(14.855)"><path d="M12.2 588.66H.64a.622.61 0 0 1-.644-.572.535.524 0 0 1 .058-.237L13.92 560.95a.664.65 0 0 1 .6-.335l13.67-.005a.622.61 0 0 1 .644.572.531.521 0 0 1-.113.316L12.45 582.55h15.87a.622.61 0 0 1 .644.572.567.556 0 0 1-.167.385L2.42 610.42c-.25.15-2.01 1.58-1.15-.6z" class="st3"/></g><text id="shape1-16" x=".25" y="622.26" class="st4">Enqueue Meter <tspan x="14.57" class="st5" dy="1.2em">Queries</tspan></text></g><g id="group9-19" transform="translate(106.754 -115.809)"><desc>Check Meter Data Availability</desc><g id="group10-20" transform="translate(0 -10.326)"><g id="shape11-21" transform="rotate(134.919 5.066 603.22)"><path d="M.87 589.62h2.67a.86.86 0 0 1 .86.86v19.8A1.717 1.717 0 0 1 2.69 612H0v-21.52a.86.86 0 0 1 .86-.86z" class="st1"/></g><g id="shape12-23" transform="rotate(44.919 18.362 603.402)"><path d="M.86 589.94h2.68a.86.86 0 0 1 .86.86V612H1.72A1.717 1.717 0 0 1 0 610.28v-19.49a.86.86 0 0 1 .86-.854Z" class="st2"/></g></g><g id="group13-25" transform="translate(39.697 -10.316)"><g id="shape14-26" transform="rotate(45.081 3.143 610.183)"><path d="M0 589.62h2.68a1.717 1.717 0 0 1 1.72 1.72v19.8a.86.86 0 0 1-.86.86H.87a.86.86 0 0 1-.86-.86v-21.52z" class="st1"/></g><g id="shape15-28" transform="rotate(135.081 7.948 597.066)"><path d="M1.72 589.94H4.4v21.2a.86.86 0 0 1-.86.86H.86a.86.86 0 0 1-.86-.86v-19.49a1.717 1.717 0 0 1 1.72-1.72z" class="st2"/></g></g><g id="shape16-30" transform="translate(14.855)"><path d="M12.2 588.66H.64a.622.61 0 0 1-.644-.572.535.524 0 0 1 .058-.237L13.92 560.95a.664.65 0 0 1 .6-.335l13.67-.005a.622.61 0 0 1 .644.572.531.521 0 0 1-.113.316L12.45 582.55h15.87a.622.61 0 0 1 .644.572.567.556 0 0 1-.167.385L2.42 610.42c-.25.15-2.01 1.58-1.15-.6z" class="st3"/></g><text id="shape9-33" x="-4.17" y="622.26" class="st4">Check Meter Data <tspan x="8.78" class="st5" dy="1.2em">Availability</tspan></text></g><g id="group17-36" transform="translate(504.331 -444.222)"><desc>Query Meter Online Provider</desc><g id="group18-37" transform="translate(0 -10.326)"><g id="shape19-38" transform="rotate(134.919 5.066 603.22)"><path d="M.87 589.62h2.67a.86.86 0 0 1 .86.86v19.8A1.717 1.717 0 0 1 2.69 612H0v-21.52a.86.86 0 0 1 .86-.86z" class="st1"/></g><g id="shape20-40" transform="rotate(44.919 18.362 603.402)"><path d="M.86 589.94h2.68a.86.86 0 0 1 .86.86V612H1.72A1.717 1.717 0 0 1 0 610.28v-19.49a.86.86 0 0 1 .86-.854Z" class="st2"/></g></g><g id="group21-42" transform="translate(39.697 -10.316)"><g id="shape22-43" transform="rotate(45.081 3.143 610.183)"><path d="M0 589.62h2.68a1.717 1.717 0 0 1 1.72 1.72v19.8a.86.86 0 0 1-.86.86H.87a.86.86 0 0 1-.86-.86v-21.52z" class="st1"/></g><g id="shape23-45" transform="rotate(135.081 7.948 597.066)"><path d="M1.72 589.94H4.4v21.2a.86.86 0 0 1-.86.86H.86a.86.86 0 0 1-.86-.86v-19.49a1.717 1.717 0 0 1 1.72-1.72z" class="st2"/></g></g><g id="shape24-47" transform="translate(14.855)"><path d="M12.2 588.66H.64a.622.61 0 0 1-.644-.572.535.524 0 0 1 .058-.237L13.92 560.95a.664.65 0 0 1 .6-.335l13.67-.005a.622.61 0 0 1 .644.572.531.521 0 0 1-.113.316L12.45 582.55h15.87a.622.61 0 0 1 .644.572.567.556 0 0 1-.167.385L2.42 610.42c-.25.15-2.01 1.58-1.15-.6z" class="st3"/></g><text id="shape17-50" x="5.14" y="622.26" class="st4">Query Meter <tspan x=".27" class="st5" dy="1.2em">Online Provider</tspan></text></g><g id="group25-53" transform="translate(408.211 -378.27)"><desc>Query Stark Provider</desc><g id="group26-54" transform="translate(0 -10.326)"><g id="shape27-55" transform="rotate(134.919 5.066 603.22)"><path d="M.87 589.62h2.67a.86.86 0 0 1 .86.86v19.8A1.717 1.717 0 0 1 2.69 612H0v-21.52a.86.86 0 0 1 .86-.86z" class="st1"/></g><g id="shape28-57" transform="rotate(44.919 18.362 603.402)"><path d="M.86 589.94h2.68a.86.86 0 0 1 .86.86V612H1.72A1.717 1.717 0 0 1 0 610.28v-19.49a.86.86 0 0 1 .86-.854Z" class="st2"/></g></g><g id="group29-59" transform="translate(39.697 -10.316)"><g id="shape30-60" transform="rotate(45.081 3.143 610.183)"><path d="M0 589.62h2.68a1.717 1.717 0 0 1 1.72 1.72v19.8a.86.86 0 0 1-.86.86H.87a.86.86 0 0 1-.86-.86v-21.52z" class="st1"/></g><g id="shape31-62" transform="rotate(135.081 7.948 597.066)"><path d="M1.72 589.94H4.4v21.2a.86.86 0 0 1-.86.86H.86a.86.86 0 0 1-.86-.86v-19.49a1.717 1.717 0 0 1 1.72-1.72z" class="st2"/></g></g><g id="shape32-64" transform="translate(14.855)"><path d="M12.2 588.66H.64a.622.61 0 0 1-.644-.572.535.524 0 0 1 .058-.237L13.92 560.95a.664.65 0 0 1 .6-.335l13.67-.005a.622.61 0 0 1 .644.572.531.521 0 0 1-.113.316L12.45 582.55h15.87a.622.61 0 0 1 .644.572.567.556 0 0 1-.167.385L2.42 610.42c-.25.15-2.01 1.58-1.15-.6z" class="st3"/></g><text id="shape25-67" x="7.2" y="622.26" class="st4">Query Stark <tspan x="13.3" class="st5" dy="1.2em">Provider</tspan></text></g><g id="group33-70" transform="translate(335.398 -115.729)"><desc>Generate Excel Report</desc><g id="group34-71" transform="translate(0 -10.326)"><g id="shape35-72" transform="rotate(134.919 5.066 603.22)"><path d="M.87 589.62h2.67a.86.86 0 0 1 .86.86v19.8A1.717 1.717 0 0 1 2.69 612H0v-21.52a.86.86 0 0 1 .86-.86z" class="st1"/></g><g id="shape36-74" transform="rotate(44.919 18.362 603.402)"><path d="M.86 589.94h2.68a.86.86 0 0 1 .86.86V612H1.72A1.717 1.717 0 0 1 0 610.28v-19.49a.86.86 0 0 1 .86-.854Z" class="st2"/></g></g><g id="group37-76" transform="translate(39.697 -10.316)"><g id="shape38-77" transform="rotate(45.081 3.143 610.183)"><path d="M0 589.62h2.68a1.717 1.717 0 0 1 1.72 1.72v19.8a.86.86 0 0 1-.86.86H.87a.86.86 0 0 1-.86-.86v-21.52z" class="st1"/></g><g id="shape39-79" transform="rotate(135.081 7.948 597.066)"><path d="M1.72 589.94H4.4v21.2a.86.86 0 0 1-.86.86H.86a.86.86 0 0 1-.86-.86v-19.49a1.717 1.717 0 0 1 1.72-1.72z" class="st2"/></g></g><g id="shape40-81" transform="translate(14.855)"><path d="M12.2 588.66H.64a.622.61 0 0 1-.644-.572.535.524 0 0 1 .058-.237L13.92 560.95a.664.65 0 0 1 .6-.335l13.67-.005a.622.61 0 0 1 .644.572.531.521 0 0 1-.113.316L12.45 582.55h15.87a.622.61 0 0 1 .644.572.567.556 0 0 1-.167.385L2.42 610.42c-.25.15-2.01 1.58-1.15-.6z" class="st3"/></g><text id="shape33-84" x="1.31" y="622.26" class="st4">Generate Excel <tspan x="16.3" class="st5" dy="1.2em">Report</tspan></text></g><g id="group41-87" transform="translate(578.959 -115.657)"><desc>Email Excel Report</desc><g id="group42-88" transform="translate(0 -10.326)"><g id="shape43-89" transform="rotate(134.919 5.066 603.22)"><path d="M.87 589.62h2.67a.86.86 0 0 1 .86.86v19.8A1.717 1.717 0 0 1 2.69 612H0v-21.52a.86.86 0 0 1 .86-.86z" class="st1"/></g><g id="shape44-91" transform="rotate(44.919 18.362 603.402)"><path d="M.86 589.94h2.68a.86.86 0 0 1 .86.86V612H1.72A1.717 1.717 0 0 1 0 610.28v-19.49a.86.86 0 0 1 .86-.854Z" class="st2"/></g></g><g id="group45-93" transform="translate(39.697 -10.316)"><g id="shape46-94" transform="rotate(45.081 3.143 610.183)"><path d="M0 589.62h2.68a1.717 1.717 0 0 1 1.72 1.72v19.8a.86.86 0 0 1-.86.86H.87a.86.86 0 0 1-.86-.86v-21.52z" class="st1"/></g><g id="shape47-96" transform="rotate(135.081 7.948 597.066)"><path d="M1.72 589.94H4.4v21.2a.86.86 0 0 1-.86.86H.86a.86.86 0 0 1-.86-.86v-19.49a1.717 1.717 0 0 1 1.72-1.72z" class="st2"/></g></g><g id="shape48-98" transform="translate(14.855)"><path d="M12.2 588.66H.64a.622.61 0 0 1-.644-.572.535.524 0 0 1 .058-.237L13.92 560.95a.664.65 0 0 1 .6-.335l13.67-.005a.622.61 0 0 1 .644.572.531.521 0 0 1-.113.316L12.45 582.55h15.87a.622.61 0 0 1 .644.572.567.556 0 0 1-.167.385L2.42 610.42c-.25.15-2.01 1.58-1.15-.6z" class="st3"/></g><text id="shape41-101" x="-5.06" y="621.18" class="st4">Email Excel Report</text></g><g id="group49-103" transform="translate(323.33 -444.227)"><desc>Process Meter Online Provider</desc><g id="group50-104"><g id="shape51-105" transform="translate(13.912 -11.422)"><path d="m29.75 592.34-.01-.01v-.04h-.07L14.88 582.2.08 592.29H.02v.04l-.02.01h.02V612h29.72v-19.66z" class="st1"/></g><g id="shape52-107" transform="translate(13.912 -11.425)"><path d="M0 592.35.03 612l14.84-9.83z" class="st6"/></g><g id="shape53-109" transform="translate(28.783 -11.425)"><path d="M14.87 592.35 0 602.17 14.84 612z" class="st7"/></g><g id="shape54-111" transform="translate(13.94 -11.428)"><path d="M14.84 602.17 0 611.98v.02h29.69v-.02z" class="st8"/></g><g id="group55-115" transform="translate(0 -38.138)"><g id="shape56-116"><path d="M1.94 598.83h4.37v12.2a.97.97 0 0 1-.969.969L.97 612a.97.97 0 0 1-.969-.952L0 600.76a1.94 1.94 0 0 1 1.94-1.93" class="st9"/></g><g id="shape57-118"><path d="M1.94 598.83h4.37v12.2a.97.97 0 0 1-.969.969L.97 612a.97.97 0 0 1-.969-.952L0 600.76a1.94 1.94 0 0 1 1.94-1.93" class="st10"/></g></g><g id="group58-120" transform="translate(51.291 -38.121)"><g id="shape59-121"><path d="M0 598.82h4.37a1.94 1.94 0 0 1 1.94 1.93v10.28a.97.97 0 0 1-.969.969L.97 612a.97.97 0 0 1-.969-.969z" class="st9"/></g><g id="shape60-123"><path d="M0 598.82h4.37a1.94 1.94 0 0 1 1.94 1.93v10.28a.97.97 0 0 1-.969.969L.97 612a.97.97 0 0 1-.969-.969z" class="st10"/></g></g><g id="shape61-125" transform="rotate(90 25.652 586.348)"><path d="M1.92 554.4h4.23V612H1.92A1.92 1.92 0 0 1 0 610.08v-53.77a1.92 1.92 0 0 1 1.92-1.91" class="st11"/></g><g id="group62-127" transform="translate(0 -.024)"><g id="shape63-128"><path d="M.97 598.83h4.37a.97.97 0 0 1 .969.969L6.31 612H1.94A1.94 1.94 0 0 1 0 610.09V599.8a.97.97 0 0 1 .969-.969Z" class="st9"/></g><g id="shape64-130"><path d="M.97 598.83h4.37a.97.97 0 0 1 .969.969L6.31 612H1.94A1.94 1.94 0 0 1 0 610.09V599.8a.97.97 0 0 1 .969-.969Z" class="st10"/></g></g><g id="group65-132" transform="translate(51.29)"><g id="shape66-133"><path d="M.97 598.81h4.37a.97.97 0 0 1 .969.969l.001 10.281A1.94 1.94 0 0 1 4.37 612H0v-12.2a.97.97 0 0 1 .969-.993Z" class="st9"/></g><g id="shape67-135"><path d="M.97 598.81h4.37a.97.97 0 0 1 .969.969l.001 10.281A1.94 1.94 0 0 1 4.37 612H0v-12.2a.97.97 0 0 1 .969-.993Z" class="st10"/></g></g><g id="shape68-137" transform="rotate(-90 28.797 583.197)"><path d="M1.92 554.4h4.23V612H1.92A1.92 1.92 0 0 1 0 610.08v-53.76a1.92 1.92 0 0 1 1.92-1.92" class="st11"/></g></g><text id="shape49-139" x="2.45" y="622.26" class="st4">Process Meter <tspan x=".27" class="st5" dy="1.2em">Online Provider</tspan></text></g><g id="group71-142" transform="translate(229.349 -378.34)"><desc>Process Stark Provider</desc><g id="group72-143"><g id="shape73-144" transform="translate(13.912 -11.422)"><path d="m29.75 592.34-.01-.01v-.04h-.07L14.88 582.2.08 592.29H.02v.04l-.02.01h.02V612h29.72v-19.66z" class="st1"/></g><g id="shape74-146" transform="translate(13.912 -11.425)"><path d="M0 592.35.03 612l14.84-9.83z" class="st6"/></g><g id="shape75-148" transform="translate(28.783 -11.425)"><path d="M14.87 592.35 0 602.17 14.84 612z" class="st7"/></g><g id="shape76-150" transform="translate(13.94 -11.428)"><path d="M14.84 602.17 0 611.98v.02h29.69v-.02z" class="st8"/></g><g id="group77-153" transform="translate(0 -38.138)"><g id="shape78-154"><path d="M1.94 598.83h4.37v12.2a.97.97 0 0 1-.969.969L.97 612a.97.97 0 0 1-.969-.952L0 600.76a1.94 1.94 0 0 1 1.94-1.93" class="st9"/></g><g id="shape79-156"><path d="M1.94 598.83h4.37v12.2a.97.97 0 0 1-.969.969L.97 612a.97.97 0 0 1-.969-.952L0 600.76a1.94 1.94 0 0 1 1.94-1.93" class="st10"/></g></g><g id="group80-158" transform="translate(51.291 -38.121)"><g id="shape81-159"><path d="M0 598.82h4.37a1.94 1.94 0 0 1 1.94 1.93v10.28a.97.97 0 0 1-.969.969L.97 612a.97.97 0 0 1-.969-.969z" class="st9"/></g><g id="shape82-161"><path d="M0 598.82h4.37a1.94 1.94 0 0 1 1.94 1.93v10.28a.97.97 0 0 1-.969.969L.97 612a.97.97 0 0 1-.969-.969z" class="st10"/></g></g><g id="shape83-163" transform="rotate(90 25.652 586.348)"><path d="M1.92 554.4h4.23V612H1.92A1.92 1.92 0 0 1 0 610.08v-53.77a1.92 1.92 0 0 1 1.92-1.91" class="st11"/></g><g id="group84-165" transform="translate(0 -.024)"><g id="shape85-166"><path d="M.97 598.83h4.37a.97.97 0 0 1 .969.969L6.31 612H1.94A1.94 1.94 0 0 1 0 610.09V599.8a.97.97 0 0 1 .969-.969Z" class="st9"/></g><g id="shape86-168"><path d="M.97 598.83h4.37a.97.97 0 0 1 .969.969L6.31 612H1.94A1.94 1.94 0 0 1 0 610.09V599.8a.97.97 0 0 1 .969-.969Z" class="st10"/></g></g><g id="group87-170" transform="translate(51.29)"><g id="shape88-171"><path d="M.97 598.81h4.37a.97.97 0 0 1 .969.969l.001 10.281A1.94 1.94 0 0 1 4.37 612H0v-12.2a.97.97 0 0 1 .969-.993Z" class="st9"/></g><g id="shape89-173"><path d="M.97 598.81h4.37a.97.97 0 0 1 .969.969l.001 10.281A1.94 1.94 0 0 1 4.37 612H0v-12.2a.97.97 0 0 1 .969-.993Z" class="st10"/></g></g><g id="shape90-175" transform="rotate(-90 28.797 583.197)"><path d="M1.92 554.4h4.23V612H1.92A1.92 1.92 0 0 1 0 610.08v-53.76a1.92 1.92 0 0 1 1.92-1.92" class="st11"/></g></g><text id="shape71-177" x="4.51" y="622.26" class="st4">Process Stark <tspan x="13.3" class="st5" dy="1.2em">Provider</tspan></text></g><g id="shape92-180" transform="translate(164.657 -428.926)"><path d="M0 612h13.5v-40.95h138.13" class="st12"/></g><g id="shape93-186" transform="translate(164.657 -428.926)"><path d="M0 612h13.5v24.93h44.15" class="st12"/></g><g id="shape94-191" transform="translate(380.93 -460.897)"><path d="M0 603.02h13.5v-.04h39.58a3 3 0 0 1 6 0h57.28" class="st12"/></g><g id="shape95-196" transform="translate(286.949 -412.978)"><path d="M0 620.99h13.5v.02h100.72" class="st12"/></g><g id="group104-201" transform="translate(680.58 -376.377)"><desc>Readings Container</desc><g id="shape105-202" transform="translate(1.345 -39.809)"><path d="M7.71 612a.57.57 0 0 1-.575-.575A6.57 6.57-180 0 0 .57 604.86a.575.575 0 0 1-.575-.571.575.575 0 0 1 .575-.575 6.57 6.57-180 0 0 6.57-6.564.57.57 0 0 1 .575-.575.57.57 0 0 1 .575.575 6.57 6.57-180 0 0 6.56 6.56.57.57 0 0 1 .575.575.57.57 0 0 1-.575.575 6.567 6.567-180 0 0-6.56 6.57.58.58 0 0 1-.575.575Z" class="st1"/></g><g id="shape106-204" transform="translate(44.22)"><path d="M6.17 612a.46.46 0 0 1-.46-.46 5.254 5.254-180 0 0-5.25-5.25.46.46 0 0 1-.46-.457.46.46 0 0 1 .46-.46 5.25 5.25-180 0 0 5.25-5.243.46.46 0 0 1 .46-.46.46.46 0 0 1 .46.46 5.25 5.25-180 0 0 5.25 5.24.46.46 0 0 1 0 .92 5.254 5.254-180 0 0-5.25 5.25.46.46 0 0 1-.46.457Z" class="st1"/></g><g id="group107-206" transform="translate(8.758 -7.717)"><g id="shape108-207" transform="translate(9.55 -2.965)"><path d="M29.98 590.27a20.042 20.042 0 1 1-24.15-14.84 20.04 20.04 0 0 1 24.15 14.84" class="st14"/></g><g id="group109-211"><g id="shape110-212"><path d="M39.53 587.3a20.042 20.042 0 1 1-24.15-14.83 20.04 20.04 0 0 1 24.15 14.83" class="st15"/></g></g></g><g id="shape111-214" transform="translate(0 -8.471)"><path d="M55.55 575.98c-2.05-3.42-6.86-4.75-13.57-3.75a48 48-180 0 0-6.8 1.47 21 21 0 0 1 4.99 2.51c.79-.17 1.58-.38 2.34-.49a24.5 24.5 0 0 1 3.6-.3 7.15 7.15 0 0 1 6.4 2.37c1.25 2.09.19 5.65-2.9 9.8a54.6 54.6 0 0 1-15.51 13.23 54.7 54.7 0 0 1-19.02 7.39c-5.1.76-8.75 0-10.01-2.08-1.25-2.08-.19-5.65 2.9-9.78.38-.52.48-.77.91-1.28a20.4 20.4 0 0 1 .08-5.33 38 38-180 0 0-3.82 4.48C1.1 599.64 0 604.5 2.05 607.92a10.34 10.34-180 0 0 9.47 4.08 27.5 27.5-180 0 0 4.09-.33 58.3 58.3-180 0 0 20.31-7.83 58.2 58.2-180 0 0 16.52-14.15c4.06-5.43 5.16-10.29 3.11-13.71" class="st1"/></g><text id="shape104-216" x="-6.7" y="621.18" class="st4">Readings Container</text></g><g id="shape112-218" transform="translate(465.811 -394.978)"><path d="M0 603.01h13.5v-.02h194.23" class="st12"/></g><g id="shape113-223" transform="translate(561.931 -469.915)"><path d="M0 612h147.45v31.27" class="st12"/></g><g id="group121-228" transform="translate(680.58 -112.605)"><desc>Azure Communication (Email) Services</desc><g id="group122-229"><g id="group123-230" transform="translate(0 -9.917)"><g id="shape124-231" transform="translate(.16 -15.78)"><path d="M47.54 596.31 23.81 612 0 596.28a.4.4 0 0 1 .08-.106l47.38-.004c.02.06.06.08.08.14" style="fill:url(#grad0-234);stroke:none;stroke-linecap:butt;stroke-width:.75"/></g><g id="shape125-235" transform="translate(.24 -31.606)"><path d="M47.38 612H0a1.2 1.2 0 0 1 .4-.43l22.48-15.28a1.485 1.485 0 0 1 1.67 0l22.43 15.3a1.2 1.2 0 0 1 .4.41" class="st17"/></g><g id="shape126-239" transform="translate(0 -.349)"><path d="m23.97 596.57-.03.03L.58 612l-.02-.03v-.02a1.48 1.48 0 0 1-.56-1.12v-29.29a1.5 1.5 0 0 1 .16-.69z" style="fill:#a67af4;stroke:none;stroke-linecap:butt;stroke-width:.75"/></g><g id="shape127-241" transform="translate(23.968 -12.23)"><path d="M23.91 593.42v10.59a.454.454 0 0 1-.576.432 15.7 15.7-180 0 0-4.154-.562A15.83 15.83-180 0 0 5.37 612L0 608.45l23.73-15.68a1.2 1.2 0 0 1 .18.65" style="fill:#773adc;stroke:none;stroke-linecap:butt;stroke-width:.75"/></g><g id="shape128-243" transform="translate(.557)"><path d="M26.78 607.46a15.8 15.8-180 0 0 .5 3.97.448.448 0 0 1-.432.57L.93 611.97a1.34 1.34 0 0 1-.9-.32l-.03-.03v-.02l23.36-15.36.03.02 5.39 3.52a15.7 15.7-180 0 0-2 7.68" style="fill:#552f99;stroke:none;stroke-linecap:butt;stroke-width:.75"/></g></g><g id="group129-245" transform="translate(28.685)"><g id="shape130-246"><circle cx="14.458" cy="597.542" r="14.458" class="st17"/></g><g id="shape131-249" transform="translate(1.232 -1.267)"><path d="M18.29 586.59a13 13-180 0 0-1.25-.44l-.11-.03-.34-.1a12.238 12.238 0 0 0-1.34-.28l-.44-.06-.61-.06h-1a13.3 13.3-180 0 0-5.28 1.12l-.27.12a13.6 13.6-180 0 0-2.31 1.37l-.06.02-.16.12A13.2 13.2-180 0 0 0 598.55v.1a12.2 12.2-180 0 0 1.92 7.09 12.63 12.63-180 0 0 8.16 5.91l.28.07.14.02q.15.045.3.06c.1.02.27.05.41.07l.42.06c.14 0 .28.03.42.04l.34.03h.28a12.7 12.7-180 0 0 10.02-3.94 12.52 12.52-180 0 0 3.76-9.14 13.235 13.235-180 0 0-8.16-12.33m3.79 3.49a12.6 12.6 0 0 1-3.64 1.39 15.4 15.4-180 0 0-2.21-4.71 12.5 12.5 0 0 1 5.85 3.32m-3.84 15.09v.02c-.44-.09-.87-.17-1.31-.24a26.1 26.1-180 0 0-9.17.24 29.4 29.4 0 0 1 .38-12.88 26.2 26.2-180 0 0 9.79.04 30.35 30.35 0 0 1 .32 12.8zm-7.31-18.56a12.4 12.4 0 0 1 4.16-.08 13 13 0 0 1 2.63 5.09 26.1 26.1 0 0 1-9.37-.02 13 13 0 0 1 1.47-3.38 14 14 0 0 1 1.15-1.6zm-4.53 1.83a12.5 12.5 0 0 1 3.36-1.57 15.5 15.5-180 0 0-2.17 4.56 10 10 0 0 1-3.27-1.32 13.7 13.7 0 0 1 2.08-1.68zm-2.76 18.4a12.44 12.44 0 0 1 .19-16.17 10.7 10.7-180 0 0 3.57 1.48 30.5 30.5-180 0 0-.41 13.23 10.2 10.2-180 0 0-3.35 1.44zm.5.57a9.5 9.5 0 0 1 3.07-1.31 12.2 12.2-180 0 0 2.32 4.68 12.5 12.5 0 0 1-5.4-3.38zm6.73 3.67-.07-.08a10.2 10.2 0 0 1-2.88-5.09 25.6 25.6 0 0 1 10.11 0 10.6 10.6 0 0 1-2.88 5.25 11.6 11.6 0 0 1-4.28-.08m6.17-.36c-.21.07-.41.13-.62.19a12.3 12.3-180 0 0 2.36-4.8 11.8 11.8 0 0 1 3.4 1.41 12.5 12.5 0 0 1-5.14 3.21zm5.66-3.78a12.5 12.5-180 0 0-3.44-1.5l-.3-.08v-.04h.03a30.6 30.6-180 0 0-.32-13.15 13.3 13.3-180 0 0 3.93-1.55 12.48 12.48 0 0 1 .1 16.33z" style="fill:#c3f1ff;stroke:none;stroke-linecap:butt;stroke-width:.75"/></g></g></g><text id="shape121-251" x="18.25" y="623.34" class="st4">Azure <tspan x="-.26" class="st5" dy="1.2em">Communication </tspan><tspan x=".2" class="st5" dy="1.2em">(Email) Services</tspan></text></g><g id="group132-255" transform="translate(217.937 -115.871)"><desc>Generate Excel Report</desc><g id="group133-256"><g id="shape134-257" transform="translate(13.912 -11.422)"><path d="m29.75 592.34-.01-.01v-.04h-.07L14.88 582.2.08 592.29H.02v.04l-.02.01h.02V612h29.72v-19.66z" class="st1"/></g><g id="shape135-259" transform="translate(13.912 -11.425)"><path d="M0 592.35.03 612l14.84-9.83z" class="st6"/></g><g id="shape136-261" transform="translate(28.783 -11.425)"><path d="M14.87 592.35 0 602.17 14.84 612z" class="st7"/></g><g id="shape137-263" transform="translate(13.94 -11.428)"><path d="M14.84 602.17 0 611.98v.02h29.69v-.02z" class="st8"/></g><g id="group138-266" transform="translate(0 -38.138)"><g id="shape139-267"><path d="M1.94 598.83h4.37v12.2a.97.97 0 0 1-.969.969L.97 612a.97.97 0 0 1-.969-.952L0 600.76a1.94 1.94 0 0 1 1.94-1.93" class="st9"/></g><g id="shape140-269"><path d="M1.94 598.83h4.37v12.2a.97.97 0 0 1-.969.969L.97 612a.97.97 0 0 1-.969-.952L0 600.76a1.94 1.94 0 0 1 1.94-1.93" class="st10"/></g></g><g id="group141-271" transform="translate(51.291 -38.121)"><g id="shape142-272"><path d="M0 598.82h4.37a1.94 1.94 0 0 1 1.94 1.93v10.28a.97.97 0 0 1-.969.969L.97 612a.97.97 0 0 1-.969-.969z" class="st9"/></g><g id="shape143-274"><path d="M0 598.82h4.37a1.94 1.94 0 0 1 1.94 1.93v10.28a.97.97 0 0 1-.969.969L.97 612a.97.97 0 0 1-.969-.969z" class="st10"/></g></g><g id="shape144-276" transform="rotate(90 25.652 586.348)"><path d="M1.92 554.4h4.23V612H1.92A1.92 1.92 0 0 1 0 610.08v-53.77a1.92 1.92 0 0 1 1.92-1.91" class="st11"/></g><g id="group145-278" transform="translate(0 -.024)"><g id="shape146-279"><path d="M.97 598.83h4.37a.97.97 0 0 1 .969.969L6.31 612H1.94A1.94 1.94 0 0 1 0 610.09V599.8a.97.97 0 0 1 .969-.969Z" class="st9"/></g><g id="shape147-281"><path d="M.97 598.83h4.37a.97.97 0 0 1 .969.969L6.31 612H1.94A1.94 1.94 0 0 1 0 610.09V599.8a.97.97 0 0 1 .969-.969Z" class="st10"/></g></g><g id="group148-283" transform="translate(51.29)"><g id="shape149-284"><path d="M.97 598.81h4.37a.97.97 0 0 1 .969.969l.001 10.281A1.94 1.94 0 0 1 4.37 612H0v-12.2a.97.97 0 0 1 .969-.993Z" class="st9"/></g><g id="shape150-286"><path d="M.97 598.81h4.37a.97.97 0 0 1 .969.969l.001 10.281A1.94 1.94 0 0 1 4.37 612H0v-12.2a.97.97 0 0 1 .969-.993Z" class="st10"/></g></g><g id="shape151-288" transform="rotate(-90 28.797 583.197)"><path d="M1.92 554.4h4.23V612H1.92A1.92 1.92 0 0 1 0 610.08v-53.76a1.92 1.92 0 0 1 1.92-1.92" class="st11"/></g></g><text id="shape132-290" x="1.31" y="622.26" class="st4">Generate Excel <tspan x="16.3" class="st5" dy="1.2em">Report</tspan></text></g><g id="shape172-293" transform="translate(164.354 -132.512)"><path d="M0 603.01h13.5v-.02h33.04" class="st12"/></g><g id="shape173-298" transform="translate(275.537 -150.473)"><path d="M0 620.95h13.5v.1h39.32" class="st12"/></g><g id="shape176-303" transform="translate(636.559 -132.35)"><path d="M0 603h36.98" class="st12"/></g><g id="group177-308" transform="translate(107.057 -530.997)"><desc>Meters Table</desc><g id="shape178-309" transform="translate(1.345 -39.809)"><path d="M7.71 612a.57.57 0 0 1-.575-.575A6.57 6.57-180 0 0 .57 604.86a.575.575 0 0 1-.575-.571.575.575 0 0 1 .575-.575 6.57 6.57-180 0 0 6.57-6.564.57.57 0 0 1 .575-.575.57.57 0 0 1 .575.575 6.57 6.57-180 0 0 6.56 6.56.57.57 0 0 1 .575.575.57.57 0 0 1-.575.575 6.567 6.567-180 0 0-6.56 6.57.58.58 0 0 1-.575.575Z" class="st1"/></g><g id="shape179-311" transform="translate(44.22)"><path d="M6.17 612a.46.46 0 0 1-.46-.46 5.254 5.254-180 0 0-5.25-5.25.46.46 0 0 1-.46-.457.46.46 0 0 1 .46-.46 5.25 5.25-180 0 0 5.25-5.243.46.46 0 0 1 .46-.46.46.46 0 0 1 .46.46 5.25 5.25-180 0 0 5.25 5.24.46.46 0 0 1 0 .92 5.254 5.254-180 0 0-5.25 5.25.46.46 0 0 1-.46.457Z" class="st1"/></g><g id="group180-313" transform="translate(8.758 -7.717)"><g id="shape181-314" transform="translate(9.55 -2.965)"><path d="M29.98 590.27a20.042 20.042 0 1 1-24.15-14.84 20.04 20.04 0 0 1 24.15 14.84" class="st14"/></g><g id="group182-317"><g id="shape183-318"><path d="M39.53 587.3a20.042 20.042 0 1 1-24.15-14.83 20.04 20.04 0 0 1 24.15 14.83" class="st15"/></g></g></g><g id="shape184-320" transform="translate(0 -8.471)"><path d="M55.55 575.98c-2.05-3.42-6.86-4.75-13.57-3.75a48 48-180 0 0-6.8 1.47 21 21 0 0 1 4.99 2.51c.79-.17 1.58-.38 2.34-.49a24.5 24.5 0 0 1 3.6-.3 7.15 7.15 0 0 1 6.4 2.37c1.25 2.09.19 5.65-2.9 9.8a54.6 54.6 0 0 1-15.51 13.23 54.7 54.7 0 0 1-19.02 7.39c-5.1.76-8.75 0-10.01-2.08-1.25-2.08-.19-5.65 2.9-9.78.38-.52.48-.77.91-1.28a20.4 20.4 0 0 1 .08-5.33 38 38-180 0 0-3.82 4.48C1.1 599.64 0 604.5 2.05 607.92a10.34 10.34-180 0 0 9.47 4.08 27.5 27.5-180 0 0 4.09-.33 58.3 58.3-180 0 0 20.31-7.83 58.2 58.2-180 0 0 16.52-14.15c4.06-5.43 5.16-10.29 3.11-13.71" class="st1"/></g><text id="shape177-322" x="4.64" y="621.18" class="st4">Meters Table</text></g><g id="shape185-324" transform="translate(145.631 -521.261)"><path d="M-8.23 612h-1.54v59.6" class="st22"/></g><g id="group188-330" transform="translate(408.211 -549.53)"><desc>Readings Container</desc><g id="shape189-331" transform="translate(1.345 -39.809)"><path d="M7.71 612a.57.57 0 0 1-.575-.575A6.57 6.57-180 0 0 .57 604.86a.575.575 0 0 1-.575-.571.575.575 0 0 1 .575-.575 6.57 6.57-180 0 0 6.57-6.564.57.57 0 0 1 .575-.575.57.57 0 0 1 .575.575 6.57 6.57-180 0 0 6.56 6.56.57.57 0 0 1 .575.575.57.57 0 0 1-.575.575 6.567 6.567-180 0 0-6.56 6.57.58.58 0 0 1-.575.575Z" class="st1"/></g><g id="shape190-333" transform="translate(44.22)"><path d="M6.17 612a.46.46 0 0 1-.46-.46 5.254 5.254-180 0 0-5.25-5.25.46.46 0 0 1-.46-.457.46.46 0 0 1 .46-.46 5.25 5.25-180 0 0 5.25-5.243.46.46 0 0 1 .46-.46.46.46 0 0 1 .46.46 5.25 5.25-180 0 0 5.25 5.24.46.46 0 0 1 0 .92 5.254 5.254-180 0 0-5.25 5.25.46.46 0 0 1-.46.457Z" class="st1"/></g><g id="group191-335" transform="translate(8.758 -7.717)"><g id="shape192-336" transform="translate(9.55 -2.965)"><path d="M29.98 590.27a20.042 20.042 0 1 1-24.15-14.84 20.04 20.04 0 0 1 24.15 14.84" class="st14"/></g><g id="group193-339"><g id="shape194-340"><path d="M39.53 587.3a20.042 20.042 0 1 1-24.15-14.83 20.04 20.04 0 0 1 24.15 14.83" class="st15"/></g></g></g><g id="shape195-342" transform="translate(0 -8.471)"><path d="M55.55 575.98c-2.05-3.42-6.86-4.75-13.57-3.75a48 48-180 0 0-6.8 1.47 21 21 0 0 1 4.99 2.51c.79-.17 1.58-.38 2.34-.49a24.5 24.5 0 0 1 3.6-.3 7.15 7.15 0 0 1 6.4 2.37c1.25 2.09.19 5.65-2.9 9.8a54.6 54.6 0 0 1-15.51 13.23 54.7 54.7 0 0 1-19.02 7.39c-5.1.76-8.75 0-10.01-2.08-1.25-2.08-.19-5.65 2.9-9.78.38-.52.48-.77.91-1.28a20.4 20.4 0 0 1 .08-5.33 38 38-180 0 0-3.82 4.48C1.1 599.64 0 604.5 2.05 607.92a10.34 10.34-180 0 0 9.47 4.08 27.5 27.5-180 0 0 4.09-.33 58.3 58.3-180 0 0 20.31-7.83 58.2 58.2-180 0 0 16.52-14.15c4.06-5.43 5.16-10.29 3.11-13.71" class="st1"/></g><text id="shape188-344" x="-6.7" y="621.18" class="st4">Readings Container</text></g><g id="shape196-346" transform="translate(428.011 -538.727)"><path d="M9 612v102.03" class="st22"/></g><g id="shape197-351" transform="translate(465.811 -577.145)"><path d="M0 612h67.32v74.5" class="st22"/></g><g id="group198-356" transform="translate(106.747 -257.606)"><desc>Readings Container</desc><g id="shape199-357" transform="translate(1.345 -39.809)"><path d="M7.71 612a.57.57 0 0 1-.575-.575A6.57 6.57-180 0 0 .57 604.86a.575.575 0 0 1-.575-.571.575.575 0 0 1 .575-.575 6.57 6.57-180 0 0 6.57-6.564.57.57 0 0 1 .575-.575.57.57 0 0 1 .575.575 6.57 6.57-180 0 0 6.56 6.56.57.57 0 0 1 .575.575.57.57 0 0 1-.575.575 6.567 6.567-180 0 0-6.56 6.57.58.58 0 0 1-.575.575Z" class="st1"/></g><g id="shape200-359" transform="translate(44.22)"><path d="M6.17 612a.46.46 0 0 1-.46-.46 5.254 5.254-180 0 0-5.25-5.25.46.46 0 0 1-.46-.457.46.46 0 0 1 .46-.46 5.25 5.25-180 0 0 5.25-5.243.46.46 0 0 1 .46-.46.46.46 0 0 1 .46.46 5.25 5.25-180 0 0 5.25 5.24.46.46 0 0 1 0 .92 5.254 5.254-180 0 0-5.25 5.25.46.46 0 0 1-.46.457Z" class="st1"/></g><g id="group201-361" transform="translate(8.758 -7.717)"><g id="shape202-362" transform="translate(9.55 -2.965)"><path d="M29.98 590.27a20.042 20.042 0 1 1-24.15-14.84 20.04 20.04 0 0 1 24.15 14.84" class="st14"/></g><g id="group203-365"><g id="shape204-366"><path d="M39.53 587.3a20.042 20.042 0 1 1-24.15-14.83 20.04 20.04 0 0 1 24.15 14.83" class="st15"/></g></g></g><g id="shape205-368" transform="translate(0 -8.471)"><path d="M55.55 575.98c-2.05-3.42-6.86-4.75-13.57-3.75a48 48-180 0 0-6.8 1.47 21 21 0 0 1 4.99 2.51c.79-.17 1.58-.38 2.34-.49a24.5 24.5 0 0 1 3.6-.3 7.15 7.15 0 0 1 6.4 2.37c1.25 2.09.19 5.65-2.9 9.8a54.6 54.6 0 0 1-15.51 13.23 54.7 54.7 0 0 1-19.02 7.39c-5.1.76-8.75 0-10.01-2.08-1.25-2.08-.19-5.65 2.9-9.78.38-.52.48-.77.91-1.28a20.4 20.4 0 0 1 .08-5.33 38 38-180 0 0-3.82 4.48C1.1 599.64 0 604.5 2.05 607.92a10.34 10.34-180 0 0 9.47 4.08 27.5 27.5-180 0 0 4.09-.33 58.3 58.3-180 0 0 20.31-7.83 58.2 58.2-180 0 0 16.52-14.15c4.06-5.43 5.16-10.29 3.11-13.71" class="st1"/></g><text id="shape198-370" x="-6.7" y="621.18" class="st4">Readings Container</text></g><g id="shape206-372" transform="translate(126.551 -246.803)"><path d="M9 612v2.7h0v69.87" class="st22"/></g><g id="group207-377" transform="translate(335.398 -257.592)"><desc>Meters Table</desc><g id="shape208-378" transform="translate(1.345 -39.809)"><path d="M7.71 612a.57.57 0 0 1-.575-.575A6.57 6.57-180 0 0 .57 604.86a.575.575 0 0 1-.575-.571.575.575 0 0 1 .575-.575 6.57 6.57-180 0 0 6.57-6.564.57.57 0 0 1 .575-.575.57.57 0 0 1 .575.575 6.57 6.57-180 0 0 6.56 6.56.57.57 0 0 1 .575.575.57.57 0 0 1-.575.575 6.567 6.567-180 0 0-6.56 6.57.58.58 0 0 1-.575.575Z" class="st1"/></g><g id="shape209-380" transform="translate(44.22)"><path d="M6.17 612a.46.46 0 0 1-.46-.46 5.254 5.254-180 0 0-5.25-5.25.46.46 0 0 1-.46-.457.46.46 0 0 1 .46-.46 5.25 5.25-180 0 0 5.25-5.243.46.46 0 0 1 .46-.46.46.46 0 0 1 .46.46 5.25 5.25-180 0 0 5.25 5.24.46.46 0 0 1 0 .92 5.254 5.254-180 0 0-5.25 5.25.46.46 0 0 1-.46.457Z" class="st1"/></g><g id="group210-382" transform="translate(8.758 -7.717)"><g id="shape211-383" transform="translate(9.55 -2.965)"><path d="M29.98 590.27a20.042 20.042 0 1 1-24.15-14.84 20.04 20.04 0 0 1 24.15 14.84" class="st14"/></g><g id="group212-386"><g id="shape213-387"><path d="M39.53 587.3a20.042 20.042 0 1 1-24.15-14.83 20.04 20.04 0 0 1 24.15 14.83" class="st15"/></g></g></g><g id="shape214-389" transform="translate(0 -8.471)"><path d="M55.55 575.98c-2.05-3.42-6.86-4.75-13.57-3.75a48 48-180 0 0-6.8 1.47 21 21 0 0 1 4.99 2.51c.79-.17 1.58-.38 2.34-.49a24.5 24.5 0 0 1 3.6-.3 7.15 7.15 0 0 1 6.4 2.37c1.25 2.09.19 5.65-2.9 9.8a54.6 54.6 0 0 1-15.51 13.23 54.7 54.7 0 0 1-19.02 7.39c-5.1.76-8.75 0-10.01-2.08-1.25-2.08-.19-5.65 2.9-9.78.38-.52.48-.77.91-1.28a20.4 20.4 0 0 1 .08-5.33 38 38-180 0 0-3.82 4.48C1.1 599.64 0 604.5 2.05 607.92a10.34 10.34-180 0 0 9.47 4.08 27.5 27.5-180 0 0 4.09-.33 58.3 58.3-180 0 0 20.31-7.83 58.2 58.2-180 0 0 16.52-14.15c4.06-5.43 5.16-10.29 3.11-13.71" class="st1"/></g><text id="shape207-391" x="4.64" y="621.18" class="st4">Meters Table</text></g><g id="group215-393" transform="translate(418.061 -257.606)"><desc>Rates Table</desc><g id="shape216-394" transform="translate(1.345 -39.809)"><path d="M7.71 612a.57.57 0 0 1-.575-.575A6.57 6.57-180 0 0 .57 604.86a.575.575 0 0 1-.575-.571.575.575 0 0 1 .575-.575 6.57 6.57-180 0 0 6.57-6.564.57.57 0 0 1 .575-.575.57.57 0 0 1 .575.575 6.57 6.57-180 0 0 6.56 6.56.57.57 0 0 1 .575.575.57.57 0 0 1-.575.575 6.567 6.567-180 0 0-6.56 6.57.58.58 0 0 1-.575.575Z" class="st1"/></g><g id="shape217-396" transform="translate(44.22)"><path d="M6.17 612a.46.46 0 0 1-.46-.46 5.254 5.254-180 0 0-5.25-5.25.46.46 0 0 1-.46-.457.46.46 0 0 1 .46-.46 5.25 5.25-180 0 0 5.25-5.243.46.46 0 0 1 .46-.46.46.46 0 0 1 .46.46 5.25 5.25-180 0 0 5.25 5.24.46.46 0 0 1 0 .92 5.254 5.254-180 0 0-5.25 5.25.46.46 0 0 1-.46.457Z" class="st1"/></g><g id="group218-398" transform="translate(8.758 -7.717)"><g id="shape219-399" transform="translate(9.55 -2.965)"><path d="M29.98 590.27a20.042 20.042 0 1 1-24.15-14.84 20.04 20.04 0 0 1 24.15 14.84" class="st14"/></g><g id="group220-402"><g id="shape221-403"><path d="M39.53 587.3a20.042 20.042 0 1 1-24.15-14.83 20.04 20.04 0 0 1 24.15 14.83" class="st15"/></g></g></g><g id="shape222-405" transform="translate(0 -8.471)"><path d="M55.55 575.98c-2.05-3.42-6.86-4.75-13.57-3.75a48 48-180 0 0-6.8 1.47 21 21 0 0 1 4.99 2.51c.79-.17 1.58-.38 2.34-.49a24.5 24.5 0 0 1 3.6-.3 7.15 7.15 0 0 1 6.4 2.37c1.25 2.09.19 5.65-2.9 9.8a54.6 54.6 0 0 1-15.51 13.23 54.7 54.7 0 0 1-19.02 7.39c-5.1.76-8.75 0-10.01-2.08-1.25-2.08-.19-5.65 2.9-9.78.38-.52.48-.77.91-1.28a20.4 20.4 0 0 1 .08-5.33 38 38-180 0 0-3.82 4.48C1.1 599.64 0 604.5 2.05 607.92a10.34 10.34-180 0 0 9.47 4.08 27.5 27.5-180 0 0 4.09-.33 58.3 58.3-180 0 0 20.31-7.83 58.2 58.2-180 0 0 16.52-14.15c4.06-5.43 5.16-10.29 3.11-13.71" class="st1"/></g><text id="shape215-407" x="7.69" y="621.18" class="st4">Rates Table</text></g><g id="shape223-409" transform="translate(157.581 -286.463)"><path d="M0 612h88.93v75.92h117.69v36.39" class="st22"/></g><g id="shape224-414" transform="translate(446.861 -246.803)"><path d="M0 612v36.26h-82.66v36.39" class="st22"/></g><g id="shape225-419" transform="translate(355.198 -246.788)"><path d="M9 612v72.63" class="st22"/></g><g id="group226-424" transform="translate(465.818 -118.336)"><desc>Blob Storage</desc><g id="shape227-425"><path d="M0 577.95h57.6v32.12a1.93 1.93 0 0 1-1.93 1.93H1.93A1.93 1.93 0 0 1 0 610.07z" style="fill:url(#grad0-428);stroke:none;stroke-linecap:butt;stroke-width:.75"/></g><g id="shape228-429" transform="translate(0 -34.052)"><path d="M1.93 599.73h53.74a1.93 1.93 0 0 1 1.93 1.94V612H0v-10.37a1.93 1.93 0 0 1 1.93-1.9" class="st25"/></g><g id="shape229-431" transform="translate(6.946 -23.752)"><path d="M.88 605.43h41.91a.915.915 0 0 1 .88.915v4.745a.915.915 0 0 1-.88.915L.88 612a.915.915 0 0 1-.88-.915v-4.745a.915.915 0 0 1 .88-.915Z" class="st26"/></g><g id="shape230-433" transform="translate(6.98 -14.264)"><path d="M.88 605.39h41.91a.915.915 0 0 1 .88.915v4.785a.915.915 0 0 1-.88.915L.88 612a.915.915 0 0 1-.88-.915v-4.605a.915.915 0 0 1 .88-1.084Z" class="st25"/></g><g id="shape231-435" transform="translate(6.98 -4.71)"><path d="M.88 605.39h41.91a.915.915 0 0 1 .88.915v4.785a.915.915 0 0 1-.88.915L.88 612a.915.915 0 0 1-.88-.915v-4.775a.915.915 0 0 1 .88-.915Z" style="fill:#258277;stroke:none;stroke-linecap:butt;stroke-width:.75"/></g><text id="shape226-437" x="5.54" y="621.18" class="st4">Blob Storage</text></g><g id="shape232-439" transform="translate(392.998 -132.458)"><path d="M0 603.04h13.5v-.08h52.28" class="st12"/></g><g id="shape233-444" transform="translate(523.418 -150.422)"><path d="M0 620.93h13.5v.14h35" class="st12"/></g><g id="group234-449" transform="translate(28.962 -409.13)"><g id="shape235-450" transform="translate(18.703 -11.207)"><path d="M2.03 593.88H0v10.2l.03.22.05.2.09.16.14.14 7.18 7.2 1.42-1.45-6.88-6.86z" class="st28"/></g><g id="shape236-452"><path d="M19.79 572.42C8.86 572.42 0 581.28 0 592.21S8.86 612 19.79 612s19.79-8.86 19.79-19.79-8.86-19.79-19.79-19.79Zm0 36.07c-8.99 0-16.28-7.29-16.28-16.28s7.29-16.27 16.28-16.27 16.27 7.28 16.27 16.27-7.28 16.28-16.27 16.28Z" class="st28"/></g><g id="shape237-454" transform="translate(18.703 -31.806)"><circle cx="1.204" cy="610.796" r="1.204" class="st28"/></g><g id="shape238-456" transform="translate(31.941 -18.585)"><circle cx="1.203" cy="610.797" r="1.203" class="st28"/></g><g id="shape239-458" transform="translate(18.69 -5.372)"><circle cx="1.203" cy="610.797" r="1.203" class="st28"/></g><g id="shape240-460" transform="translate(5.453 -18.626)"><circle cx="1.203" cy="610.797" r="1.203" class="st28"/></g></g><g id="group241-462" transform="translate(28.955 -121.627)"><g id="shape242-463" transform="translate(18.703 -11.207)"><path d="M2.03 593.88H0v10.2l.03.22.05.2.09.16.14.14 7.18 7.2 1.42-1.45-6.88-6.86z" class="st28"/></g><g id="shape243-465"><path d="M19.79 572.42C8.86 572.42 0 581.28 0 592.21S8.86 612 19.79 612s19.79-8.86 19.79-19.79-8.86-19.79-19.79-19.79Zm0 36.07c-8.99 0-16.28-7.29-16.28-16.28s7.29-16.27 16.28-16.27 16.27 7.28 16.27 16.27-7.28 16.28-16.27 16.28Z" class="st28"/></g><g id="shape244-467" transform="translate(18.703 -31.806)"><circle cx="1.204" cy="610.796" r="1.204" class="st28"/></g><g id="shape245-469" transform="translate(31.941 -18.585)"><circle cx="1.203" cy="610.797" r="1.203" class="st28"/></g><g id="shape246-471" transform="translate(18.69 -5.372)"><circle cx="1.203" cy="610.797" r="1.203" class="st28"/></g><g id="shape247-473" transform="translate(5.453 -18.626)"><circle cx="1.203" cy="610.797" r="1.203" class="st28"/></g></g><g id="shape248-475" transform="translate(68.54 -419.922)"><path d="M0 603h31.48" class="st12"/></g><g id="shape249-480" transform="translate(68.533 -132.458)"><path d="M0 603.04h13.5v-.08h17.68" class="st12"/></g><g id="shape250-485" transform="translate(16.55 -105.79)"><desc>0 30 8 2 * *</desc><path d="M0 601.92h64.375V612H0z" class="st29"/><text x="4.22" y="610.56" class="st30">0 30 8 2 * *</text></g><g id="shape251-488" transform="translate(16.556 -391.09)"><desc>0 0 8 2 * *</desc><path d="M0 601.92h64.375V612H0z" class="st29"/><text x="7.26" y="610.56" class="st30">0 0 8 2 * *</text></g><g id="group252-491" transform="translate(709.366 -539.294)"><desc>For accessing passwords</desc><g id="shape253-492"><path d="M28.8 554.4a28.8 28.8-180 1 0 28.8 28.8 28.834 28.834-180 0 0-28.8-28.8m0 53.67a24.87 24.87 0 1 1 24.87-24.87 24.87 24.87 0 0 1-24.87 24.87" style="fill:url(#grad3-495);stroke:none;stroke-linecap:butt;stroke-width:.75"/></g><g id="shape254-496" transform="translate(3.93 -3.93)"><circle cx="24.87" cy="587.13" r="24.87" class="st26"/></g><g id="group255-498" transform="translate(11.95 -1.694)"><g id="shape256-499"><path d="M31.89 579.24a6.234 6.234-180 0 0 0-8.78l-10.67-10.71a6.2 6.2-180 0 0-8.74 0L1.81 570.46a6.234 6.234-180 0 0 0 8.78l8.87 9.04a1.73 1.73 0 0 1 .51 1.22v16.54a2.13 2.13-180 0 0 .61 1.49l4.07 4.06a1.39 1.39-180 0 0 1.96 0l3.93-3.93 2.31-2.3a.847.847-180 0 0 0-1.152l-1.66-1.658a.915.915 0 0 1 0-1.254l1.66-1.666a.847.847-180 0 0 0-1.152l-1.66-1.658a.915.915 0 0 1 0-1.254l1.66-1.656a.847.847-180 0 0 0-1.152l-2.31-2.338v-.85zm-15.04-16.88a3.507 3.507 0 1 1 0 7.02 3.507 3.507 0 1 1 0-7.02" style="fill:url(#grad7-502);stroke:none;stroke-linecap:butt;stroke-width:.75"/></g><g id="shape257-503" transform="translate(13.834 -5.64)"><path d="M.24 611.88a.78.78-180 0 0 1.288-.576L1.52 597.75a.81.81-180 0 0-.373-.678.745.745-180 0 0-1.152.678L0 611.3a.95.95-180 0 0 .237.576Z" class="st33"/></g><g id="shape258-505" transform="translate(8.31 -35.916)"><path d="M0 611.05a.95.95-180 0 0 .949.949L16.57 612a.95.95-180 0 0 .949-.949l.001-.171a.95.95-180 0 0-.949-.949L.95 609.93a.95.95-180 0 0-.949.949z" class="st33"/></g><g id="shape259-507" transform="translate(8.31 -32.562)"><path d="M0 611.05a.95.95-180 0 0 .949.949L16.57 612a.95.95-180 0 0 .949-.949l.001-.171a.95.95-180 0 0-.949-.949L.95 609.93a.95.95-180 0 0-.949.949z" class="st33"/></g></g><text id="shape252-509" x="4.54" y="622.26" class="st4">For accessing <tspan x="9.48" class="st5" dy="1.2em">passwords</tspan></text></g></svg>